<svg width="27" height="27" viewBox="0 0 27 27" fill="none" xmlns="http://www.w3.org/2000/svg">
<path fill-rule="evenodd" clip-rule="evenodd" d="M13.5 0C20.9706 0 27 6.0657 27 13.5C27 20.9343 20.9718 27 13.5 27C6.02815 27 0 20.9343 0 13.5C0 6.0657 6.02815 0 13.5 0ZM14.022 1.08282V6.41592H18.6363C17.8009 4.04991 16.2255 1.45902 14.022 1.08282ZM14.022 7.45422V12.9808H19.7594C19.717 10.9816 19.4353 9.10542 18.9664 7.45422H14.022ZM14.022 14.0191V19.5457H18.9663C19.4353 17.8945 19.7169 16.0183 19.7593 14.0191H14.022ZM14.022 20.584V25.9171C16.2255 25.541 17.8008 22.9499 18.6363 20.584H14.022ZM12.978 25.9171V20.584H8.3637C9.19912 22.95 10.7745 25.5409 12.978 25.9171ZM12.978 19.5457V14.0191H7.24066C7.28308 16.0183 7.56469 17.8945 8.03367 19.5457H12.978ZM12.978 12.9808V7.45422H8.0337C7.56472 9.10539 7.28193 10.9816 7.24069 12.9808H12.978ZM12.978 6.41592V1.08282C10.7746 1.45899 9.19927 4.05 8.3637 6.41592H12.978ZM3.24985 6.41592H7.26208C7.86655 4.58544 8.79741 2.75952 10.1124 1.50462C7.30096 2.2968 4.88297 4.05462 3.24985 6.41592ZM19.738 6.41592H23.7502C22.1171 4.05459 19.6991 2.29692 16.8877 1.50462C18.2027 2.76087 19.1335 4.58562 19.738 6.41592ZM24.3948 7.45419H20.0469C20.4946 9.12528 20.7633 10.999 20.8033 12.9808H25.9444C25.863 10.9804 25.3104 9.10299 24.3948 7.45419ZM6.95229 7.45419H2.60552C1.68996 9.10185 1.13851 10.9804 1.05604 12.9808H6.19705C6.23711 10.9991 6.50452 9.12639 6.95229 7.45419ZM23.7505 20.584H19.7383C19.1338 22.4145 18.2029 24.2404 16.8879 25.4953C19.6994 24.7031 22.1174 22.9453 23.7505 20.584ZM7.26238 20.584H3.25015C4.88331 22.9453 7.30129 24.703 10.1127 25.4953C8.79765 24.2402 7.86686 22.4143 7.26238 20.584ZM2.60552 19.5457H6.95349C6.50572 17.8746 6.23708 16.0009 6.19702 14.0191H1.05601C1.13732 16.0195 1.68999 17.8969 2.60552 19.5457ZM20.0469 19.5457H24.3948C25.3104 17.8981 25.8619 16.0195 25.9443 14.0191H20.8045C20.7633 16.0008 20.4958 17.8735 20.0469 19.5457Z" fill="white"/>
</svg>
