<svg width="19" height="19" viewBox="0 0 19 19" fill="none" xmlns="http://www.w3.org/2000/svg">
<path d="M9.50195 5.04688C11.9629 5.04688 13.9941 7.07812 13.9941 9.53906C13.9941 12.0391 11.9629 14.0312 9.50195 14.0312C7.00195 14.0312 5.00977 12.0391 5.00977 9.53906C5.00977 7.07812 7.00195 5.04688 9.50195 5.04688ZM9.50195 12.4688C11.1035 12.4688 12.3926 11.1797 12.3926 9.53906C12.3926 7.9375 11.1035 6.64844 9.50195 6.64844C7.86133 6.64844 6.57227 7.9375 6.57227 9.53906C6.57227 11.1797 7.90039 12.4688 9.50195 12.4688ZM15.2051 4.89062C15.2051 5.47656 14.7363 5.94531 14.1504 5.94531C13.5645 5.94531 13.0957 5.47656 13.0957 4.89062C13.0957 4.30469 13.5645 3.83594 14.1504 3.83594C14.7363 3.83594 15.2051 4.30469 15.2051 4.89062ZM18.1738 5.94531C18.252 7.39062 18.252 11.7266 18.1738 13.1719C18.0957 14.5781 17.7832 15.7891 16.7676 16.8438C15.752 17.8594 14.502 18.1719 13.0957 18.25C11.6504 18.3281 7.31445 18.3281 5.86914 18.25C4.46289 18.1719 3.25195 17.8594 2.19727 16.8438C1.18164 15.7891 0.869141 14.5781 0.791016 13.1719C0.712891 11.7266 0.712891 7.39062 0.791016 5.94531C0.869141 4.53906 1.18164 3.28906 2.19727 2.27344C3.25195 1.25781 4.46289 0.945312 5.86914 0.867188C7.31445 0.789062 11.6504 0.789062 13.0957 0.867188C14.502 0.945312 15.752 1.25781 16.7676 2.27344C17.7832 3.28906 18.0957 4.53906 18.1738 5.94531ZM16.2988 14.6953C16.7676 13.5625 16.6504 10.8281 16.6504 9.53906C16.6504 8.28906 16.7676 5.55469 16.2988 4.38281C15.9863 3.64062 15.4004 3.01562 14.6582 2.74219C13.4863 2.27344 10.752 2.39062 9.50195 2.39062C8.21289 2.39062 5.47852 2.27344 4.3457 2.74219C3.56445 3.05469 2.97852 3.64062 2.66602 4.38281C2.19727 5.55469 2.31445 8.28906 2.31445 9.53906C2.31445 10.8281 2.19727 13.5625 2.66602 14.6953C2.97852 15.4766 3.56445 16.0625 4.3457 16.375C5.47852 16.8438 8.21289 16.7266 9.50195 16.7266C10.752 16.7266 13.4863 16.8438 14.6582 16.375C15.4004 16.0625 16.0254 15.4766 16.2988 14.6953Z" fill="white"/>
</svg>
