<svg width="24" height="23" viewBox="0 0 24 23" fill="none" xmlns="http://www.w3.org/2000/svg">
<path d="M20.8223 2.30078H6.2043C5.30692 2.30078 4.58008 3.02777 4.58008 3.92533V18.5462C4.58008 19.4438 5.30692 20.1708 6.2043 20.1708H20.8223C21.7197 20.1708 22.4465 19.4438 22.4465 18.5462V3.92533C22.4465 3.02777 21.7197 2.30078 20.8223 2.30078ZM10.2275 16.9217H7.83178V9.2116H10.2275V16.9217ZM9.00528 8.10934C8.23296 8.10934 7.60844 7.48308 7.60844 6.71223C7.60844 5.94139 8.23377 5.31594 9.00528 5.31594C9.77516 5.31594 10.4013 5.9422 10.4013 6.71223C10.4013 7.48308 9.77516 8.10934 9.00528 8.10934ZM19.2013 16.9217H16.8072V13.1722C16.8072 12.2779 16.791 11.1277 15.5623 11.1277C14.3157 11.1277 14.124 12.1017 14.124 13.1073V16.9217H11.7299V9.2116H14.0282V10.2651H14.0607C14.3806 9.65916 15.1619 9.0199 16.3273 9.0199C18.7531 9.0199 19.2013 10.6168 19.2013 12.693V16.9217Z" fill="white"/>
</svg>
