<svg width="13" height="10" viewBox="0 0 13 10" fill="none" xmlns="http://www.w3.org/2000/svg">
<path d="M11.0385 8.6L11.7671 9.365C11.5946 9.45275 11.406 9.49887 11.2143 9.5H1.78575C1.59397 9.49887 1.4054 9.45275 1.2329 9.365L5.03434 5.37346L5.74147 6.03946C5.94879 6.23803 6.21933 6.34883 6.50003 6.34996C6.78182 6.34658 7.05288 6.23633 7.26289 6.03946L7.96574 5.37796L11.0385 8.6ZM6.32429 5.36446C6.37411 5.41846 6.44321 5.4494 6.515 5.4494C6.58678 5.4494 6.65588 5.41846 6.70571 5.36446L10.9014 1.4L11.7329 0.617C11.5695 0.541063 11.3927 0.501125 11.2143 0.5H1.78578C1.60738 0.501125 1.4306 0.541063 1.26721 0.617L2.09864 1.4L6.32429 5.36446ZM4.40855 4.77046L1.35714 1.91293L0.645713 1.24244C0.550892 1.42975 0.50107 1.63787 0.5 1.84994V8.14994C0.500536 8.34963 0.544464 8.54707 0.628571 8.72594L1.35714 7.96094L4.40855 4.77046ZM12.3543 1.24246L11.6429 1.91296L8.60434 4.77049L11.6429 7.96556L12.3714 8.73056C12.455 8.54944 12.4989 8.35144 12.5 8.15007V1.85007C12.4989 1.638 12.4491 1.42978 12.3543 1.24246Z" fill="white"/>
</svg>
