<svg width="13" height="12" viewBox="0 0 13 12" fill="none" xmlns="http://www.w3.org/2000/svg">
<path d="M11.2941 11.0238C10.8573 11.4605 10.5586 11.9018 9.92695 11.9712C7.98704 12.1853 6.05768 11.1751 4.58911 9.99595C2.71063 8.4875 0.819761 6.17774 0.55112 3.68595C0.39028 2.19323 0.582504 2.10679 1.50897 1.17054L2.0536 0.617958C2.31839 0.353461 2.60413 0.0444306 2.99837 0.00318296C3.46455 -0.0485383 3.70252 0.54267 3.91044 0.860198L4.90359 2.37716C5.03436 2.5775 5.24424 2.85312 5.34885 3.05544C5.63 3.59558 5.06444 3.95501 4.72904 4.26796C4.578 4.40938 4.43286 4.55735 4.2851 4.70202C4.85196 6.15352 6.4277 7.57159 7.7843 8.25056C8.0759 8.01553 8.46035 7.58341 8.71795 7.30647C9.16778 6.82134 9.72352 7.33659 10.1295 7.59651L11.9498 8.76975C12.4173 9.06896 12.703 9.36029 12.3257 9.96394C12.21 10.1486 12.0224 10.3064 11.8674 10.4589L11.2941 11.0238Z" fill="white"/>
</svg>
