<svg xmlns="http://www.w3.org/2000/svg" width="114" height="62" viewBox="0 0 114 62" fill="none"><path d="M75.3111 40.3232C75.2494 39.9925 75.3596 39.6573 75.6066 39.4235L88.3613 26.9997C89.3227 26.0647 89.6535 24.7018 89.2478 23.4317C88.8288 22.1659 87.7615 21.253 86.4428 21.0589L68.8197 18.501C68.489 18.4525 68.2067 18.2408 68.0568 17.9497L60.1711 1.98405C59.5802 0.788853 58.3894 0.0390625 57.0487 0.0390625C55.7212 0.0390625 54.5172 0.775576 53.9262 1.98405L46.0406 17.9497C45.8951 18.2452 45.6084 18.4525 45.2776 18.501L27.6546 21.0589C26.3403 21.2574 25.2554 22.1527 24.8496 23.4317C24.4439 24.6974 24.7746 26.0646 25.7361 26.9997L38.4908 39.4235C38.7377 39.6573 38.8348 39.988 38.7863 40.3232L35.774 57.8718C35.5535 59.1861 36.0827 60.4915 37.1633 61.2765C38.2438 62.0615 39.6462 62.163 40.8282 61.5367L56.5816 53.2453C56.8771 53.0865 57.2343 53.0865 57.5298 53.2453L73.2832 61.5367C73.7992 61.8057 74.3549 61.9424 74.9062 61.9424C75.6206 61.9424 76.3307 61.7219 76.9481 61.2765C78.0287 60.4915 78.5579 59.186 78.3374 57.8718L75.3252 40.3232L75.3111 40.3232ZM75.4963 59.2876C75.3508 59.3978 74.9318 59.6316 74.4246 59.3626L58.6713 51.0712C57.6613 50.5419 56.444 50.5419 55.4385 51.0712L39.6851 59.3626C39.1823 59.6316 38.7634 59.3978 38.6134 59.2876C38.4547 59.1773 38.1107 58.8554 38.2077 58.2909L41.2199 40.7423C41.4184 39.6089 41.0347 38.4666 40.2232 37.6683L27.4685 25.2444C27.0628 24.8519 27.1466 24.3844 27.2083 24.1992C27.2701 24.014 27.4685 23.5862 28.033 23.5112L45.6561 20.9532C46.7895 20.7945 47.773 20.08 48.2758 19.048L56.1614 3.08236C56.4216 2.56636 56.8891 2.51784 57.0699 2.51784C57.2552 2.51784 57.7359 2.56635 57.9785 3.08236L65.8641 19.048C66.3668 20.0668 67.3503 20.7813 68.4838 20.9532L86.1068 23.5112C86.6713 23.5994 86.8698 24.0272 86.9316 24.1992C86.9933 24.3844 87.0771 24.8387 86.6713 25.2444L73.9167 37.6683C73.0919 38.4666 72.7215 39.6133 72.9199 40.7423L75.9322 58.2909C76.0292 58.8554 75.672 59.1773 75.5265 59.2876H75.4963Z" fill="#707070"></path><path d="M112.553 29.4691C113.364 28.6709 113.66 27.5154 113.302 26.4305C112.945 25.35 112.037 24.5738 110.903 24.4149L97.3016 22.4347C97.1429 22.4083 96.9929 22.3112 96.9223 22.1525L90.8362 9.8302C90.3334 8.81143 89.3102 8.18079 88.1811 8.17188C87.0477 8.17188 86.029 8.81137 85.5261 9.8302L81.8876 17.2087C81.5789 17.8217 81.8391 18.5494 82.4389 18.8581C83.0519 19.1668 83.7928 18.9066 84.0883 18.3068L87.7268 10.9283C87.8503 10.6813 88.0576 10.6461 88.181 10.6461C88.2913 10.6461 88.5118 10.6813 88.6353 10.9283L94.7215 23.2506C95.1537 24.1238 95.9872 24.7368 96.9619 24.8736L110.563 26.8538C110.832 26.8891 110.934 27.0875 110.969 27.1978C111.004 27.308 111.031 27.5285 110.846 27.7138L100.993 37.3061C100.292 37.9809 99.9742 38.9645 100.146 39.9258L102.47 53.4787C102.519 53.7478 102.36 53.9109 102.263 53.9727C102.166 54.0477 101.968 54.1315 101.734 54.008L89.5709 47.613C88.7109 47.1588 87.6789 47.1588 86.8057 47.613L79.1803 51.622C78.5761 51.9439 78.3423 52.6805 78.6643 53.2803C78.9863 53.8845 79.7228 54.1183 80.3226 53.7963L87.948 49.7873C88.0935 49.7124 88.2699 49.7124 88.4155 49.7873L100.592 56.1823C101.033 56.416 101.501 56.5263 101.968 56.5263C102.581 56.5263 103.185 56.3278 103.715 55.9618C104.636 55.2958 105.091 54.1801 104.897 53.0598L102.572 39.5069C102.546 39.3482 102.599 39.1762 102.718 39.0527L112.571 29.4603L112.553 29.4691Z" fill="#707070"></path><path d="M34.8385 51.6376L27.2131 47.6287C26.3531 47.1744 25.3211 47.1744 24.4479 47.6287L12.2848 54.0236C12.0378 54.1471 11.8438 54.0501 11.7423 53.9883C11.6453 53.9133 11.4954 53.7678 11.5439 53.4944L13.8681 39.9415C14.0269 38.98 13.7225 37.9965 13.0213 37.3218L3.1687 27.7294C2.97024 27.5309 3.00994 27.3237 3.04522 27.2134C3.0805 27.1031 3.18194 26.9047 3.45096 26.8694L17.0524 24.8892C18.0227 24.7525 18.8474 24.1394 19.2929 23.2662L25.379 10.9439C25.5025 10.697 25.7098 10.6617 25.8333 10.6617C25.9568 10.6617 26.1641 10.697 26.2875 10.9439L29.9261 18.3224C30.2216 18.9266 30.9581 19.1824 31.5755 18.8737C32.1885 18.5782 32.4355 17.8417 32.1268 17.2243L28.4882 9.84582C27.9855 8.82705 26.9622 8.1875 25.8332 8.1875C24.6998 8.1875 23.681 8.82699 23.1782 9.84582L17.092 22.1681C17.017 22.3136 16.8715 22.4283 16.7127 22.4503L3.11126 24.4305C1.97782 24.5893 1.06929 25.3655 0.712066 26.4461C0.354829 27.5266 0.650322 28.6954 1.46181 29.4848L11.3011 39.0771C11.4246 39.1874 11.4731 39.3594 11.4466 39.5314L9.12242 53.0843C8.92396 54.2045 9.38263 55.3248 10.3044 55.9863C10.8204 56.3655 11.4378 56.5508 12.0509 56.5508C12.5184 56.5508 12.9991 56.4405 13.427 56.2068L25.6036 49.8118C25.7491 49.7368 25.9255 49.7368 26.0711 49.8118L33.6964 53.8208C34.3007 54.1427 35.0372 53.909 35.3548 53.3048C35.6767 52.7006 35.443 51.9641 34.8388 51.6465L34.8385 51.6376Z" fill="#707070"></path></svg>