<svg xmlns="http://www.w3.org/2000/svg" width="108" height="70" viewBox="0 0 108 70" fill="none"><path d="M24.2912 29.9731C30.9637 29.9731 36.4019 24.5483 36.4019 17.8624C36.4019 11.1766 30.977 5.75172 24.2912 5.75172C17.6053 5.75172 12.1805 11.1766 12.1805 17.8624C12.1805 24.5483 17.6187 29.9731 24.2912 29.9731ZM24.2912 8.36781C29.5237 8.36781 33.7947 12.6254 33.7947 17.8713C33.7947 23.1039 29.5371 27.3749 24.2912 27.3749C19.0587 27.3749 14.7876 23.1173 14.7876 17.8713C14.8011 12.6299 19.0587 8.36781 24.2912 8.36781ZM83.6196 29.9731C90.2922 29.9731 95.7303 24.5483 95.7303 17.8624C95.7303 11.1766 90.3055 5.75172 83.6196 5.75172C76.9338 5.75172 71.5089 11.1766 71.5089 17.8624C71.5044 24.5484 76.9427 29.9731 83.6196 29.9731ZM83.6196 8.36781C88.8521 8.36781 93.1232 12.6254 93.1232 17.8713C93.1232 23.1039 88.8655 27.3749 83.6196 27.3749C78.3871 27.3749 74.1161 23.1173 74.1161 17.8713C74.1161 12.6299 78.3737 8.36781 83.6196 8.36781ZM83.6196 32.4907C78.8209 32.4907 74.2324 33.9219 70.2839 36.6142C65.6909 33.2958 60.0469 31.3369 53.9691 31.3369C47.878 31.3369 42.2477 33.2957 37.6544 36.6142C33.692 33.9219 29.1124 32.4907 24.3187 32.4907C11.1524 32.4907 0.445312 43.1973 0.445312 56.3641V60.085C0.445312 63.153 2.94084 65.6485 6.00881 65.6485H26.3662C27.2025 68.1663 29.5728 70 32.3769 70H75.6196C78.4147 70 80.7939 68.1663 81.6302 65.6485H101.988C105.056 65.6485 107.551 63.153 107.551 60.085V56.3641C107.493 43.1978 96.7856 32.4907 83.6196 32.4907ZM26.0085 59.2836V63.0402L5.97286 63.0357C4.34494 63.0357 3.03014 61.7074 3.03014 60.093V56.3721C3.03014 44.6507 12.5649 35.1114 24.2908 35.1114C28.2846 35.1114 32.1352 36.2205 35.4983 38.3269C29.6844 43.4387 26.0085 50.9384 26.0085 59.2836ZM79.2908 63.6663C79.2908 65.7147 77.6182 67.3738 75.5833 67.3738L32.3406 67.3783C30.2923 67.3783 28.6331 65.7057 28.6331 63.6708V59.288C28.6331 45.3215 40.0015 33.9527 53.9684 33.9527C67.9354 33.9527 79.3038 45.3211 79.3038 59.288V63.6663L79.2908 63.6663ZM104.881 60.0841C104.881 61.712 103.553 63.0268 101.939 63.0268H81.9031V59.2702C81.9031 50.9249 78.2269 43.4386 72.4129 38.3083C75.7805 36.2019 79.6267 35.0927 83.6204 35.0927C95.3418 35.0927 104.881 44.6275 104.881 56.3534L104.881 60.0841ZM53.9565 28.1163C61.7069 28.1163 68.017 21.806 68.017 14.0559C68.017 6.30997 61.7067 0 53.9565 0C46.2064 0 39.8961 6.31032 39.8961 14.0605C39.8961 21.8108 46.2064 28.1163 53.9565 28.1163ZM53.9565 2.6115C60.2669 2.6115 65.4055 7.74121 65.4055 14.0605C65.4055 20.3797 60.2758 25.5094 53.9565 25.5094C47.6373 25.5094 42.5076 20.3797 42.5076 14.0605C42.5076 7.74121 47.6462 2.6115 53.9565 2.6115Z" fill="#707070"></path></svg>