<svg xmlns="http://www.w3.org/2000/svg" width="130" height="70" viewBox="0 0 130 70" fill="none"><path d="M128.163 24.2101C128.147 23.9501 128.062 23.699 127.918 23.482C127.774 23.2651 127.575 23.0898 127.341 22.9739C127.108 22.858 126.848 22.8055 126.588 22.8216C126.328 22.8377 126.077 22.9219 125.86 23.0657L103.21 37.9276C102.993 38.068 102.817 38.2625 102.698 38.4918C102.58 38.7211 102.523 38.9774 102.533 39.2354C102.544 39.4934 102.621 39.7443 102.758 39.9632C102.895 40.1821 103.087 40.3616 103.314 40.4839L110.121 44.2142C109.6 46.4275 108.764 48.5546 107.639 50.5305H97.2357V1.48619C97.2357 1.09203 97.0792 0.714012 96.8005 0.435297C96.5217 0.156582 96.1437 0 95.7496 0H74.6605C74.2663 0 73.8883 0.156582 73.6096 0.435297C73.3309 0.714012 73.1743 1.09203 73.1743 1.48619V50.5305H67.2295V12.5286C67.2295 12.1344 67.0729 11.7564 66.7942 11.4777C66.5155 11.199 66.1375 11.0424 65.7433 11.0424H44.6543C44.2601 11.0424 43.8821 11.199 43.6034 11.4777C43.3247 11.7564 43.1681 12.1344 43.1681 12.5286V50.5454H36.9261V30.8831C36.9261 30.4889 36.7695 30.1109 36.4908 29.8322C36.2121 29.5535 35.834 29.3969 35.4399 29.3969H14.2765C13.8823 29.3969 13.5043 29.5535 13.2256 29.8322C12.9469 30.1109 12.7903 30.4889 12.7903 30.8831V50.5454H1.74791C1.35375 50.5454 0.97573 50.702 0.697015 50.9807C0.4183 51.2594 0.261719 51.6374 0.261719 52.0316C0.261719 52.4257 0.4183 52.8038 0.697015 53.0825C0.97573 53.3612 1.35375 53.5178 1.74791 53.5178H105.662C104.877 54.5355 104.022 55.4988 103.106 56.401C99.3779 60.1535 94.6233 62.72 89.4404 63.7777C84.2574 64.8355 78.8774 64.3373 73.9768 62.3457C73.9768 62.3457 73.8728 62.3457 73.8134 62.3457C73.7149 62.3304 73.6146 62.3304 73.5161 62.3457H73.2486H72.9662L72.7136 62.4646L72.4758 62.6133L72.2677 62.8362C72.2677 62.8362 72.1934 62.8362 72.1637 62.9551C72.134 63.074 72.1637 62.9551 72.1637 63.074L72.0745 63.1929C72.0745 63.1929 72.0745 63.2969 72.0745 63.3415C72.0673 63.4404 72.0673 63.5398 72.0745 63.6387C72.0671 63.7327 72.0671 63.8271 72.0745 63.9211C72.0676 64.0102 72.0676 64.0996 72.0745 64.1886C72.1079 64.2804 72.1476 64.3698 72.1934 64.4561L72.342 64.6791C72.4052 64.7595 72.4804 64.8296 72.565 64.8871C72.565 64.8871 72.565 64.9763 72.669 65.006C77.9351 68.297 84.026 70.0284 90.2358 69.9996C99.3251 69.9964 108.042 66.3887 114.476 59.9678C117.454 56.9774 119.835 53.4466 121.49 49.5645L127.584 52.7004C127.792 52.8013 128.021 52.8522 128.253 52.849C128.542 52.8511 128.827 52.7685 129.07 52.6112C129.287 52.4685 129.464 52.2713 129.581 52.0392C129.698 51.807 129.753 51.5482 129.739 51.2885L128.163 24.2101ZM76.1467 3.01697H94.3228V50.5751H76.1467V3.01697ZM15.7627 32.3693H33.9537V50.5454H15.7627V32.3693ZM46.1405 14.0148H64.3315V50.5454H46.1405V14.0148ZM121.431 46.2206C121.357 46.2133 121.282 46.2133 121.208 46.2206C121.114 46.2063 121.019 46.2063 120.926 46.2206C120.837 46.205 120.747 46.205 120.658 46.2206H120.361L120.138 46.3543C120.048 46.4048 119.963 46.4646 119.885 46.5327C119.819 46.6011 119.759 46.6757 119.707 46.7556C119.654 46.8085 119.609 46.8686 119.573 46.9339C118.037 50.9932 115.65 54.677 112.573 57.7386C109.409 60.9583 105.586 63.4555 101.366 65.0588C97.146 66.6621 92.6292 67.3336 88.1254 67.0273C94.6304 66.1614 100.666 63.1671 105.291 58.5114C109.45 54.5446 112.27 49.3814 113.361 43.7386C113.375 43.6301 113.375 43.5202 113.361 43.4117C113.368 43.3276 113.368 43.2431 113.361 43.159C113.328 43.0672 113.288 42.9778 113.242 42.8915L113.123 42.6388L112.93 42.4605C112.858 42.3834 112.778 42.3137 112.692 42.2524L107.059 39.176L125.34 26.9001L126.603 48.8214L121.431 46.2206Z" fill="#707070"></path></svg>