<svg xmlns="http://www.w3.org/2000/svg" width="26" height="19" viewBox="0 0 26 19" fill="none"><path d="M10.752 13.0391L17.2395 9.28906L10.752 5.53906V13.0391ZM25.202 3.25156C25.3645 3.83906 25.477 4.62656 25.552 5.62656C25.6395 6.62656 25.677 7.48906 25.677 8.23906L25.752 9.28906C25.752 12.0266 25.552 14.0391 25.202 15.3266C24.8895 16.4516 24.1645 17.1766 23.0395 17.4891C22.452 17.6516 21.377 17.7641 19.727 17.8391C18.102 17.9266 16.6145 17.9641 15.2395 17.9641L13.252 18.0391C8.01445 18.0391 4.75195 17.8391 3.46445 17.4891C2.33945 17.1766 1.61445 16.4516 1.30195 15.3266C1.13945 14.7391 1.02695 13.9516 0.951953 12.9516C0.864453 11.9516 0.826953 11.0891 0.826953 10.3391L0.751953 9.28906C0.751953 6.55156 0.951953 4.53906 1.30195 3.25156C1.61445 2.12656 2.33945 1.40156 3.46445 1.08906C4.05195 0.926563 5.12695 0.814062 6.77695 0.739062C8.40195 0.651562 9.88945 0.614062 11.2645 0.614062L13.252 0.539062C18.4895 0.539062 21.752 0.739063 23.0395 1.08906C24.1645 1.40156 24.8895 2.12656 25.202 3.25156Z" fill="white"></path></svg>